<svg width="80" height="60" viewBox="0 0 80 60" fill="none" xmlns="http://www.w3.org/2000/svg">
<path d="M72.5 0C74.5833 0 76.3542 0.729167 77.8125 2.1875C79.2708 3.64583 80 5.41667 80 7.5V52.5C80 54.5833 79.2708 56.3542 77.8125 57.8125C76.3542 59.2708 74.5833 60 72.5 60H7.5C5.41667 60 3.64583 59.2708 2.1875 57.8125C0.729167 56.3542 0 54.5833 0 52.5V7.5C0 5.41667 0.729167 3.64583 2.1875 2.1875C3.64583 0.729167 5.41667 0 7.5 0H72.5ZM75 52.5V7.5C75 6.77083 74.7396 6.19792 74.2188 5.78125C73.8021 5.26042 73.2292 5 72.5 5H7.5C6.77083 5 6.14583 5.26042 5.625 5.78125C5.20833 6.19792 5 6.77083 5 7.5V52.5C5 53.2292 5.20833 53.8542 5.625 54.375C6.14583 54.7917 6.77083 55 7.5 55H72.5C73.2292 55 73.8021 54.7917 74.2188 54.375C74.7396 53.8542 75 53.2292 75 52.5ZM23.5938 23.75C21.9271 25.4167 19.8958 26.25 17.5 26.25C15.1042 26.25 13.0208 25.4167 11.25 23.75C9.58333 21.9792 8.75 19.8958 8.75 17.5C8.75 15.1042 9.58333 13.0729 11.25 11.4062C13.0208 9.63542 15.1042 8.75 17.5 8.75C19.8958 8.75 21.9271 9.63542 23.5938 11.4062C25.3646 13.0729 26.25 15.1042 26.25 17.5C26.25 19.8958 25.3646 21.9792 23.5938 23.75ZM20.1562 14.8438C19.4271 14.1146 18.5417 13.75 17.5 13.75C16.4583 13.75 15.5729 14.1146 14.8438 14.8438C14.1146 15.5729 13.75 16.4583 13.75 17.5C13.75 18.5417 14.1146 19.4271 14.8438 20.1562C15.5729 20.8854 16.4583 21.25 17.5 21.25C18.5417 21.25 19.4271 20.8854 20.1562 20.1562C20.8854 19.4271 21.25 18.5417 21.25 17.5C21.25 16.4583 20.8854 15.5729 20.1562 14.8438ZM49.8438 17.3438C50.5729 16.6146 51.4583 16.25 52.5 16.25C53.5417 16.25 54.4271 16.6146 55.1562 17.3438L68.9062 31.0938C69.6354 31.8229 70 32.7083 70 33.75V48.125C70 49.375 69.375 50 68.125 50H11.875C10.625 50 10 49.375 10 48.125V43.75C10 42.7083 10.3646 41.8229 11.0938 41.0938L24.8438 27.3438C25.5729 26.6146 26.4583 26.25 27.5 26.25C28.5417 26.25 29.4271 26.6146 30.1562 27.3438L35 32.1875L49.8438 17.3438ZM65 45V34.2188L52.5 21.7188L35 39.2188L27.5 31.7188L15 44.2188V45H65Z" fill="#E0E0E0"/>
</svg>
