<svg width="18" height="17" viewBox="0 0 18 17" fill="none" xmlns="http://www.w3.org/2000/svg">
<path d="M11.3906 1.5H6.78516C6.52734 1.5 6.35156 1.61719 6.25781 1.85156L5.55469 3.75H1.6875C1.52344 3.75 1.38281 3.80859 1.26562 3.92578C1.17188 4.01953 1.125 4.14844 1.125 4.3125V14.4375C1.125 14.6016 1.17188 14.7422 1.26562 14.8594C1.38281 14.9531 1.52344 15 1.6875 15H16.3125C16.4766 15 16.6055 14.9531 16.6992 14.8594C16.8164 14.7422 16.875 14.6016 16.875 14.4375V4.3125C16.875 4.14844 16.8164 4.01953 16.6992 3.92578C16.6055 3.80859 16.4766 3.75 16.3125 3.75H12.4453L11.6719 1.67578C11.625 1.55859 11.5312 1.5 11.3906 1.5ZM11.3906 0.375C12.0469 0.375 12.4922 0.679688 12.7266 1.28906L13.2188 2.625H16.3125C16.7812 2.625 17.1797 2.78906 17.5078 3.11719C17.8359 3.44531 18 3.84375 18 4.3125V14.4375C18 14.9062 17.8359 15.3047 17.5078 15.6328C17.1797 15.9609 16.7812 16.125 16.3125 16.125H1.6875C1.21875 16.125 0.820312 15.9609 0.492188 15.6328C0.164062 15.3047 0 14.9062 0 14.4375V4.3125C0 3.84375 0.164062 3.44531 0.492188 3.11719C0.820312 2.78906 1.21875 2.625 1.6875 2.625H4.78125L5.20312 1.46484C5.34375 1.13672 5.55469 0.878906 5.83594 0.691406C6.11719 0.480469 6.43359 0.375 6.78516 0.375H11.3906ZM11.9883 12.3633C11.168 13.1836 10.1719 13.5938 9 13.5938C7.82812 13.5938 6.83203 13.1836 6.01172 12.3633C5.19141 11.543 4.78125 10.5469 4.78125 9.375C4.78125 8.20312 5.19141 7.20703 6.01172 6.38672C6.83203 5.56641 7.82812 5.15625 9 5.15625C10.1719 5.15625 11.168 5.56641 11.9883 6.38672C12.8086 7.20703 13.2188 8.20312 13.2188 9.375C13.2188 10.5469 12.8086 11.543 11.9883 12.3633ZM11.1797 7.19531C10.5703 6.58594 9.84375 6.28125 9 6.28125C8.15625 6.28125 7.42969 6.58594 6.82031 7.19531C6.21094 7.80469 5.90625 8.53125 5.90625 9.375C5.90625 10.2188 6.21094 10.9453 6.82031 11.5547C7.42969 12.1641 8.15625 12.4688 9 12.4688C9.84375 12.4688 10.5703 12.1641 11.1797 11.5547C11.7891 10.9453 12.0938 10.2188 12.0938 9.375C12.0938 8.53125 11.7891 7.80469 11.1797 7.19531Z" fill="white"/>
</svg>
