<svg width="15" height="18" viewBox="0 0 15 18" fill="none" xmlns="http://www.w3.org/2000/svg">
<path d="M3.78125 12.3438H6.96875C7.23438 12.3438 7.5 12.1113 7.5 11.8125V8.625C7.5 8.35938 7.23438 8.09375 6.96875 8.09375H3.78125C3.48242 8.09375 3.25 8.35938 3.25 8.625V11.8125C3.25 12.1113 3.48242 12.3438 3.78125 12.3438ZM13.3438 2.25H11.75V0.65625C11.75 0.390625 11.4844 0.125 11.2188 0.125H10.1562C9.85742 0.125 9.625 0.390625 9.625 0.65625V2.25H5.375V0.65625C5.375 0.390625 5.10938 0.125 4.84375 0.125H3.78125C3.48242 0.125 3.25 0.390625 3.25 0.65625V2.25H1.65625C0.759766 2.25 0.0625 2.98047 0.0625 3.84375V15.5312C0.0625 16.4277 0.759766 17.125 1.65625 17.125H13.3438C14.207 17.125 14.9375 16.4277 14.9375 15.5312V3.84375C14.9375 2.98047 14.207 2.25 13.3438 2.25ZM13.3438 15.332C13.3438 15.4648 13.2441 15.5312 13.1445 15.5312H1.85547C1.72266 15.5312 1.65625 15.4648 1.65625 15.332V5.4375H13.3438V15.332Z" fill="#49D360"/>
</svg>
