<svg width="16" height="16" viewBox="0 0 16 16" fill="none" xmlns="http://www.w3.org/2000/svg">
<path d="M9.79688 8.01123L14.8125 13.0737C15.1875 13.4175 15.1875 13.7612 14.8125 14.105L13.6406 15.2769C13.2969 15.6519 12.9531 15.6519 12.6094 15.2769L7.54688 10.2612L2.48438 15.2769C2.14062 15.6519 1.79688 15.6519 1.45312 15.2769L0.28125 14.105C-0.09375 13.7612 -0.09375 13.4175 0.28125 13.0737L5.29688 8.01123L0.28125 2.94873C-0.09375 2.60498 -0.09375 2.26123 0.28125 1.91748L1.45312 0.745605C1.79688 0.370605 2.14062 0.370605 2.48438 0.745605L7.54688 5.76123L12.6094 0.745605C12.9531 0.370605 13.2969 0.370605 13.6406 0.745605L14.8125 1.91748C15.1875 2.26123 15.1875 2.60498 14.8125 2.94873L9.79688 8.01123Z" fill="#EB5757"/>
</svg>
