<svg width="19" height="19" viewBox="0 0 19 19" fill="none" xmlns="http://www.w3.org/2000/svg">
<path opacity="0.9" d="M15.9297 10.375H15.3672C15.0508 10.375 14.8047 10.6562 14.8047 10.9375V16.3516C14.8047 16.4922 14.6992 16.5625 14.5938 16.5625H2.64062C2.5 16.5625 2.42969 16.4922 2.42969 16.3516V4.39844C2.42969 4.29297 2.5 4.1875 2.64062 4.1875H8.05469C8.33594 4.1875 8.61719 3.94141 8.61719 3.625V3.0625C8.61719 2.78125 8.33594 2.5 8.05469 2.5H2.42969C1.48047 2.5 0.742188 3.27344 0.742188 4.1875V16.5625C0.742188 17.5117 1.48047 18.25 2.42969 18.25H14.8047C15.7188 18.25 16.4922 17.5117 16.4922 16.5625V10.9375C16.4922 10.6562 16.2109 10.375 15.9297 10.375ZM18.3203 0.25H13.5391C13.293 0.285156 13.1172 0.460938 13.1172 0.671875C13.1172 0.777344 13.1523 0.917969 13.2227 0.988281L14.9102 2.67578L5.34766 12.2383C5.27734 12.3086 5.20703 12.4492 5.20703 12.5547C5.20703 12.6602 5.27734 12.7656 5.34766 12.8359L6.15625 13.6445C6.22656 13.7148 6.33203 13.7852 6.4375 13.7852C6.54297 13.7852 6.68359 13.7148 6.75391 13.6445L16.3164 4.08203L18.0039 5.76953C18.0742 5.83984 18.2148 5.875 18.3203 5.875C18.5312 5.875 18.707 5.69922 18.7422 5.45312V0.671875C18.7422 0.460938 18.5312 0.25 18.3203 0.25Z" fill="#202224"/>
</svg>
