<svg width="20" height="21" viewBox="0 0 20 21" fill="none" xmlns="http://www.w3.org/2000/svg">
<path d="M10 0.8125C4.64844 0.8125 0.3125 5.1875 0.3125 10.5C0.3125 15.8516 4.64844 20.1875 10 20.1875C15.3125 20.1875 19.6875 15.8516 19.6875 10.5C19.6875 5.1875 15.3125 0.8125 10 0.8125ZM10 18.3125C5.66406 18.3125 2.1875 14.8359 2.1875 10.5C2.1875 6.20312 5.66406 2.6875 10 2.6875C14.2969 2.6875 17.8125 6.20312 17.8125 10.5C17.8125 14.8359 14.2969 18.3125 10 18.3125ZM10 5.10938C9.0625 5.10938 8.35938 5.85156 8.35938 6.75C8.35938 7.6875 9.0625 8.39062 10 8.39062C10.8984 8.39062 11.6406 7.6875 11.6406 6.75C11.6406 5.85156 10.8984 5.10938 10 5.10938ZM12.1875 15.0312V14.0938C12.1875 13.8594 11.9531 13.625 11.7188 13.625H11.25V9.71875C11.25 9.48438 11.0156 9.25 10.7812 9.25H8.28125C8.00781 9.25 7.8125 9.48438 7.8125 9.71875V10.6562C7.8125 10.9297 8.00781 11.125 8.28125 11.125H8.75V13.625H8.28125C8.00781 13.625 7.8125 13.8594 7.8125 14.0938V15.0312C7.8125 15.3047 8.00781 15.5 8.28125 15.5H11.7188C11.9531 15.5 12.1875 15.3047 12.1875 15.0312Z" fill="#4B4D67"/>
</svg>
