<svg width="15" height="21" viewBox="0 0 15 21" fill="none" xmlns="http://www.w3.org/2000/svg">
<path d="M7.5 0.5C3.35938 0.5 0 3.89844 0 8C0 11.0078 0.976562 11.9062 6.71875 20.1484C6.91406 20.3828 7.1875 20.5 7.5 20.5C7.77344 20.5 8.04688 20.3828 8.24219 20.1484C13.9844 11.9062 15 11.0078 15 8C15 3.89844 11.6016 0.5 7.5 0.5ZM7.5 17.9609C6.91406 17.1406 6.40625 16.3984 5.9375 15.7734C2.26562 10.5391 1.875 9.91406 1.875 8C1.875 4.91406 4.375 2.375 7.5 2.375C10.5859 2.375 13.125 4.91406 13.125 8C13.125 9.91406 12.6953 10.5391 9.02344 15.7734C8.55469 16.3984 8.04688 17.1406 7.5 17.9609ZM5.3125 7.375C5.82031 7.375 6.25 6.98438 6.25 6.4375C6.25 5.92969 5.82031 5.5 5.3125 5.5C4.76562 5.5 4.375 5.92969 4.375 6.4375C4.375 6.98438 4.76562 7.375 5.3125 7.375ZM9.6875 7.375C10.1953 7.375 10.625 6.98438 10.625 6.4375C10.625 5.92969 10.1953 5.5 9.6875 5.5C9.14062 5.5 8.75 5.92969 8.75 6.4375C8.75 6.98438 9.14062 7.375 9.6875 7.375ZM9.29688 9.40625C8.35938 10.4219 6.60156 10.4219 5.70312 9.40625C5.35156 9.01562 4.76562 8.97656 4.375 9.32812C3.98438 9.64062 3.94531 10.2656 4.29688 10.6172C5.07812 11.5547 6.25 12.0625 7.5 12.0625C8.71094 12.0625 9.88281 11.5547 10.7031 10.6172C11.0156 10.2656 10.9766 9.64062 10.5859 9.32812C10.1953 8.97656 9.60938 9.01562 9.29688 9.40625Z" fill="#4B4D67"/>
</svg>
