<svg width="21" height="15" viewBox="0 0 21 15" fill="none" xmlns="http://www.w3.org/2000/svg">
<path d="M1.875 0H7.03125C7.34375 0 7.5 0.15625 7.5 0.46875V0.78125C7.5 1.09375 7.34375 1.25 7.03125 1.25H1.875C1.69271 1.25 1.53646 1.3151 1.40625 1.44531C1.30208 1.54948 1.25 1.69271 1.25 1.875V13.125C1.25 13.3073 1.30208 13.4635 1.40625 13.5938C1.53646 13.6979 1.69271 13.75 1.875 13.75H7.03125C7.34375 13.75 7.5 13.9062 7.5 14.2188V14.5312C7.5 14.8438 7.34375 15 7.03125 15H1.875C1.35417 15 0.911458 14.8177 0.546875 14.4531C0.182292 14.0885 0 13.6458 0 13.125V1.875C0 1.35417 0.182292 0.911458 0.546875 0.546875C0.911458 0.182292 1.35417 0 1.875 0ZM12.7734 0.78125C13.0078 0.546875 13.2292 0.546875 13.4375 0.78125L19.8828 7.1875C20.0911 7.39583 20.0911 7.60417 19.8828 7.8125L13.4375 14.2188C13.2292 14.4531 13.0078 14.4531 12.7734 14.2188L12.5 13.9453C12.2656 13.737 12.2656 13.5156 12.5 13.2812L17.6562 8.16406H6.71875C6.40625 8.16406 6.25 8.00781 6.25 7.69531V7.30469C6.25 6.99219 6.40625 6.83594 6.71875 6.83594H17.6562L12.5 1.71875C12.2656 1.48438 12.2656 1.26302 12.5 1.05469L12.7734 0.78125Z" fill="#EB5757"/>
</svg>
