<svg width="13" height="21" viewBox="0 0 13 21" fill="none" xmlns="http://www.w3.org/2000/svg">
<path d="M10.875 0.5H2.125C1.07031 0.5 0.25 1.35938 0.25 2.375V18.625C0.25 19.6797 1.07031 20.5 2.125 20.5H10.875C11.8906 20.5 12.75 19.6797 12.75 18.625V2.375C12.75 1.35938 11.8906 0.5 10.875 0.5ZM10.6406 18.625H2.35938C2.20312 18.625 2.125 18.5469 2.125 18.3906V2.60938C2.125 2.49219 2.20312 2.375 2.35938 2.375H10.6406C10.7578 2.375 10.875 2.49219 10.875 2.60938V18.3906C10.875 18.5469 10.7578 18.625 10.6406 18.625ZM7.90625 17.375C8.14062 17.375 8.375 17.1797 8.375 16.9062V16.5938C8.375 16.3594 8.14062 16.125 7.90625 16.125H5.09375C4.82031 16.125 4.625 16.3594 4.625 16.5938V16.9062C4.625 17.1797 4.82031 17.375 5.09375 17.375H7.90625Z" fill="#F2994A"/>
</svg>
