<svg width="10" height="16" viewBox="0 0 10 16" fill="none" xmlns="http://www.w3.org/2000/svg">
<path d="M6 13C6 12.4688 5.53125 12 5 12C4.4375 12 4 12.4688 4 13C4 13.5625 4.4375 14 5 14C5.53125 14 6 13.5625 6 13ZM10 1.5C10 0.6875 9.3125 0 8.5 0H1.5C0.65625 0 0 0.6875 0 1.5V14.5C0 15.3438 0.65625 16 1.5 16H8.5C9.3125 16 10 15.3438 10 14.5V1.5ZM8.5 14.3125C8.5 14.4375 8.40625 14.5 8.3125 14.5H1.6875C1.5625 14.5 1.5 14.4375 1.5 14.3125V1.6875C1.5 1.59375 1.5625 1.5 1.6875 1.5H8.3125C8.40625 1.5 8.5 1.59375 8.5 1.6875V14.3125Z" fill="#49D360"/>
</svg>
