<svg width="20" height="21" viewBox="0 0 20 21" fill="none" xmlns="http://www.w3.org/2000/svg">
<path d="M9.6875 0.8125C4.33594 0.8125 0 5.14844 0 10.5C0 15.8516 4.33594 20.1875 9.6875 20.1875C15.0391 20.1875 19.375 15.8516 19.375 10.5C19.375 5.14844 15.0391 0.8125 9.6875 0.8125ZM9.6875 18.9375C5 18.9375 1.25 15.1875 1.25 10.5C1.25 5.85156 5 2.0625 9.6875 2.0625C14.3359 2.0625 18.125 5.85156 18.125 10.5C18.125 15.1875 14.3359 18.9375 9.6875 18.9375ZM11.25 10.3047L8.4375 9.52344C7.96875 9.40625 7.61719 8.97656 7.61719 8.46875C7.61719 7.88281 8.125 7.375 8.75 7.375H10.5078C10.9375 7.375 11.3672 7.53125 11.6797 7.80469C11.8359 7.88281 11.9922 7.88281 12.1094 7.76562L12.5391 7.29688C12.6562 7.17969 12.6562 6.94531 12.5 6.82812C11.9531 6.39844 11.25 6.125 10.5078 6.125H10.3125V4.5625C10.3125 4.40625 10.1562 4.25 10 4.25H9.375C9.17969 4.25 9.0625 4.40625 9.0625 4.5625V6.125H8.75C7.42188 6.125 6.36719 7.17969 6.36719 8.46875C6.36719 9.52344 7.07031 10.4219 8.08594 10.7344L10.8984 11.5156C11.3672 11.6328 11.7188 12.0625 11.7188 12.5703C11.7188 13.1562 11.2109 13.625 10.5859 13.625H8.82812C8.39844 13.625 7.96875 13.5078 7.65625 13.2344C7.5 13.1562 7.34375 13.1562 7.22656 13.2734L6.79688 13.7422C6.67969 13.8594 6.67969 14.0938 6.83594 14.2109C7.38281 14.6406 8.08594 14.875 8.82812 14.875H9.0625V16.4375C9.0625 16.6328 9.17969 16.75 9.375 16.75H10C10.1562 16.75 10.3125 16.6328 10.3125 16.4375V14.875H10.5859C11.9141 14.875 12.9688 13.8594 12.9688 12.5703C12.9688 11.5156 12.2656 10.5781 11.25 10.3047Z" fill="#4B4D67"/>
</svg>
