<svg width="15" height="18" viewBox="0 0 15 18" fill="none" xmlns="http://www.w3.org/2000/svg">
<path d="M10.4551 10.2188C9.49219 10.2188 9.06055 10.75 7.5 10.75C5.90625 10.75 5.47461 10.2188 4.51172 10.2188C2.05469 10.2188 0.0625 12.2441 0.0625 14.7012V15.5312C0.0625 16.4277 0.759766 17.125 1.65625 17.125H13.3438C14.207 17.125 14.9375 16.4277 14.9375 15.5312V14.7012C14.9375 12.2441 12.9121 10.2188 10.4551 10.2188ZM13.3438 15.5312H1.65625V14.7012C1.65625 13.1074 2.91797 11.8125 4.51172 11.8125C5.00977 11.8125 5.77344 12.3438 7.5 12.3438C9.19336 12.3438 9.95703 11.8125 10.4551 11.8125C12.0488 11.8125 13.3438 13.1074 13.3438 14.7012V15.5312ZM7.5 9.6875C10.123 9.6875 12.2812 7.5625 12.2812 4.90625C12.2812 2.2832 10.123 0.125 7.5 0.125C4.84375 0.125 2.71875 2.2832 2.71875 4.90625C2.71875 7.5625 4.84375 9.6875 7.5 9.6875ZM7.5 1.71875C9.22656 1.71875 10.6875 3.17969 10.6875 4.90625C10.6875 6.66602 9.22656 8.09375 7.5 8.09375C5.74023 8.09375 4.3125 6.66602 4.3125 4.90625C4.3125 3.17969 5.74023 1.71875 7.5 1.71875Z" fill="#828282"/>
</svg>
