<svg width="22" height="24" viewBox="0 0 22 24" fill="none" xmlns="http://www.w3.org/2000/svg">
<path d="M15.6719 16.5C14.3125 16.5 13.7031 17.25 11.5 17.25C9.25 17.25 8.64062 16.5 7.28125 16.5C3.8125 16.5469 1 19.3594 1 22.8281C1 23.4844 1.51562 24 2.17188 24H20.7812C21.4375 24 21.9531 23.4844 22 22.8281C21.9531 19.3594 19.1406 16.5469 15.6719 16.5ZM3.34375 21.75C3.8125 20.1094 5.54688 18.75 7.28125 18.75C7.9375 18.75 9.0625 19.5 11.5 19.5C13.8906 19.5 15.0156 18.75 15.6719 18.75C17.4062 18.7969 19.1406 20.1094 19.6094 21.75H3.34375ZM5.5 8.625C5.5 8.76562 5.5 8.90625 5.5 9C5.5 12.3281 8.17188 15 11.5 15C14.7812 15 17.5 12.3281 17.5 9C17.5 8.90625 17.4531 8.76562 17.4531 8.625C20.6875 7.21875 21.8125 4.96875 21.9062 4.875C21.9531 4.78125 21.9531 4.64062 21.9531 4.54688C21.9531 4.125 21.625 3.79688 21.2031 3.79688C21.0156 3.79688 20.7812 3.89062 20.6406 4.03125C20.5469 4.125 19.6094 5.01562 17.0781 5.625C16.6094 3.23438 15.625 0 14.0312 0C13.5156 0 13.0938 0.234375 12.7188 0.515625C12.4375 0.75 11.875 0.9375 11.5 0.9375C11.125 0.9375 10.6094 0.75 10.2812 0.515625C9.95312 0.234375 9.48438 0 9.01562 0C7.42188 0 6.4375 3.28125 5.92188 5.625C3.34375 5.01562 2.40625 4.125 2.35938 4.125C2.26562 3.9375 1.9375 3.75 1.70312 3.75C1.28125 3.75 0.953125 4.07812 0.953125 4.5C0.953125 4.59375 1 4.78125 1.04688 4.875C1.14062 5.01562 2.3125 7.21875 5.5 8.625ZM11.5 9.75C11.5 9.79688 11.5469 9.79688 11.5469 9.79688C12.5781 9.79688 14.2188 9.60938 15.2031 9.375C15.0156 11.25 13.4219 12.75 11.5 12.75C9.53125 12.75 7.9375 11.25 7.75 9.375C8.73438 9.60938 10.375 9.79688 11.4062 9.79688C11.4062 9.79688 11.4531 9.79688 11.5 9.75Z" fill="#4B4D67"/>
</svg>
