<svg width="20" height="21" viewBox="0 0 20 21" fill="none" xmlns="http://www.w3.org/2000/svg">
<path d="M17.6562 9.75781L18.9062 9.05469C19.2578 8.85938 19.4531 8.42969 19.3359 8C18.9062 6.35938 18.0078 4.875 16.8359 3.66406C16.5234 3.39062 16.0547 3.3125 15.7031 3.50781L14.4531 4.25C14.1406 4.01562 13.5547 3.66406 13.1641 3.50781V2.0625C13.1641 1.67188 12.8516 1.24219 12.4609 1.16406C10.8594 0.734375 9.10156 0.734375 7.5 1.16406C7.07031 1.28125 6.79688 1.63281 6.79688 2.0625V3.50781C6.40625 3.66406 5.82031 4.01562 5.50781 4.25L4.25781 3.50781C3.90625 3.3125 3.4375 3.39062 3.125 3.66406C1.95312 4.875 1.05469 6.35938 0.625 8C0.507812 8.42969 0.703125 8.85938 1.05469 9.05469L2.30469 9.75781C2.26562 9.99219 2.26562 10.3047 2.26562 10.5C2.26562 10.7344 2.26562 11.0469 2.30469 11.2422L1.05469 11.9844C0.703125 12.1797 0.507812 12.6094 0.625 13.0391C1.05469 14.6797 1.95312 16.1641 3.125 17.375C3.4375 17.6484 3.90625 17.7266 4.25781 17.5312L5.50781 16.7891C5.82031 17.0234 6.40625 17.375 6.79688 17.5312V18.9766C6.79688 19.3672 7.10938 19.7969 7.5 19.875C9.10156 20.3047 10.8594 20.3047 12.4609 19.875C12.8906 19.7578 13.1641 19.4062 13.1641 18.9766V17.5312C13.5547 17.375 14.1406 17.0234 14.4531 16.7891L15.7031 17.5312C16.0547 17.7266 16.5234 17.6484 16.8359 17.375C18.0078 16.1641 18.9062 14.6797 19.3359 13.0391C19.4531 12.6094 19.2578 12.1797 18.9062 11.9844L17.6562 11.2422C17.6953 10.7734 17.6953 10.2656 17.6562 9.75781ZM15.5859 12.2578L17.3047 13.2344C17.0703 13.9375 16.4453 14.9531 15.9766 15.5L14.2578 14.5234C13.0078 15.5781 12.8516 15.6953 11.2891 16.2422V18.2344C10.9375 18.2734 10.3516 18.3516 10 18.3516C9.60938 18.3516 9.02344 18.2734 8.67188 18.2344V16.2422C7.10938 15.6953 6.91406 15.5781 5.70312 14.5234L3.98438 15.5C3.51562 14.9531 2.89062 13.9375 2.65625 13.2344L4.375 12.2578C4.0625 10.6172 4.0625 10.4219 4.375 8.78125L2.65625 7.80469C2.96875 6.98438 3.39844 6.20312 3.98438 5.53906L5.70312 6.51562C6.95312 5.46094 7.10938 5.34375 8.67188 4.79688V2.80469C9.02344 2.76562 9.60938 2.6875 10 2.6875C10.3516 2.6875 10.9375 2.76562 11.2891 2.80469V4.79688C12.8516 5.34375 13.0469 5.46094 14.2578 6.51562L15.9766 5.53906C16.4453 6.08594 17.0703 7.10156 17.3047 7.80469L15.5859 8.78125C15.8984 10.4219 15.8984 10.6172 15.5859 12.2578ZM10 6.75C7.92969 6.75 6.25 8.46875 6.25 10.5C6.25 12.5703 7.92969 14.25 10 14.25C12.0312 14.25 13.75 12.5703 13.75 10.5C13.75 8.46875 12.0312 6.75 10 6.75ZM10 12.375C8.94531 12.375 8.125 11.5547 8.125 10.5C8.125 9.48438 8.94531 8.625 10 8.625C11.0156 8.625 11.875 9.48438 11.875 10.5C11.875 11.5547 11.0156 12.375 10 12.375Z" fill="#2D9CDB"/>
</svg>
