<svg width="18" height="19" viewBox="0 0 18 19" fill="none" xmlns="http://www.w3.org/2000/svg">
<path d="M12.9453 7.07812C13.1406 6.92188 13.1406 6.60938 12.9453 6.41406L12.0859 5.55469C11.8906 5.35938 11.5781 5.35938 11.4219 5.55469L9 7.97656L6.53906 5.55469C6.38281 5.35938 6.07031 5.35938 5.875 5.55469L5.01562 6.41406C4.82031 6.60938 4.82031 6.92188 5.01562 7.07812L7.4375 9.5L5.01562 11.9609C4.82031 12.1172 4.82031 12.4297 5.01562 12.625L5.875 13.4844C6.07031 13.6797 6.38281 13.6797 6.53906 13.4844L9 11.0625L11.4219 13.4844C11.5781 13.6797 11.8906 13.6797 12.0859 13.4844L12.9453 12.625C13.1406 12.4297 13.1406 12.1172 12.9453 11.9609L10.5234 9.5L12.9453 7.07812ZM17.75 2.625C17.75 1.60938 16.8906 0.75 15.875 0.75H2.125C1.07031 0.75 0.25 1.60938 0.25 2.625V16.375C0.25 17.4297 1.07031 18.25 2.125 18.25H15.875C16.8906 18.25 17.75 17.4297 17.75 16.375V2.625ZM15.875 16.1406C15.875 16.2969 15.7578 16.375 15.6406 16.375H2.35938C2.20312 16.375 2.125 16.2969 2.125 16.1406V2.85938C2.125 2.74219 2.20312 2.625 2.35938 2.625H15.6406C15.7578 2.625 15.875 2.74219 15.875 2.85938V16.1406Z" fill="#EB5757"/>
</svg>
