<svg width="18" height="19" viewBox="0 0 18 19" fill="none" xmlns="http://www.w3.org/2000/svg">
<path d="M15.875 0.75H2.125C1.07031 0.75 0.25 1.60938 0.25 2.625V16.375C0.25 17.4297 1.07031 18.25 2.125 18.25H15.875C16.8906 18.25 17.75 17.4297 17.75 16.375V2.625C17.75 1.60938 16.8906 0.75 15.875 0.75ZM15.875 16.375H2.125V2.625H15.875V16.375ZM14.4688 6.96094C14.625 6.76562 14.625 6.49219 14.4688 6.29688L13.5703 5.39844C13.4141 5.20312 13.1016 5.20312 12.9062 5.39844L7.39844 10.8672L5.05469 8.52344C4.85938 8.32812 4.58594 8.32812 4.39062 8.52344L3.49219 9.38281C3.33594 9.57812 3.33594 9.89062 3.49219 10.0469L7.04688 13.6406C7.24219 13.8359 7.51562 13.8359 7.71094 13.6406L14.4688 6.96094Z" fill="#F2994A"/>
</svg>
