<svg width="27" height="24" viewBox="0 0 27 24" fill="none" xmlns="http://www.w3.org/2000/svg">
<path d="M8.25 4.5C6.98438 4.5 6 5.53125 6 6.75C6 8.01562 6.98438 9 8.25 9C9.46875 9 10.5 8.01562 10.5 6.75C10.5 5.53125 9.46875 4.5 8.25 4.5ZM17.25 4.5C15.9844 4.5 15 5.53125 15 6.75C15 8.01562 15.9844 9 17.25 9C18.4688 9 19.5 8.01562 19.5 6.75C19.5 5.53125 18.4688 4.5 17.25 4.5ZM25.7812 11.25C25.5469 11.2969 25.2656 11.3906 25.0781 11.4844L21 14.25C20.9531 13.7812 20.7656 13.0312 20.4844 12.6562C22.5469 11.4844 24 9.28125 24 6.75C24 3.04688 20.9531 0 17.25 0C15.5625 0 13.9688 0.65625 12.75 1.78125C11.4844 0.65625 9.89062 0 8.25 0C4.5 0 1.5 3.04688 1.5 6.75C1.5 8.48438 2.15625 10.0781 3.23438 11.25H1.5C0.65625 11.25 0 11.9531 0 12.75V15.75C0 16.5938 0.65625 17.25 1.5 17.25H3.75V21C3.75 22.6875 5.0625 24 6.75 24H18C19.6406 24 21 22.6875 21 21V21.0469L25.0781 23.8125C25.2656 23.9062 25.5469 24 25.7812 24C26.3906 24 27 23.5312 27 22.8281V12.4688C27 11.7656 26.3906 11.25 25.7812 11.25ZM18.75 21C18.75 21.4219 18.375 21.75 18 21.75H6.75C6.32812 21.75 6 21.4219 6 21V15H2.25V13.5H18C18.375 13.5 18.75 13.875 18.75 14.25V21ZM17.25 11.25H8.25C5.76562 11.25 3.75 9.23438 3.75 6.75C3.75 4.3125 5.76562 2.25 8.25 2.25C9.32812 2.25 10.3594 2.67188 11.2031 3.42188L12.75 4.78125L14.25 3.42188C15.0938 2.67188 16.125 2.25 17.25 2.25C19.6875 2.25 21.75 4.3125 21.75 6.75C21.75 9.23438 19.6875 11.25 17.25 11.25ZM24.75 20.8594L21 18.3281V16.9219L24.75 14.4375V20.8594Z" fill="#4B4D67"/>
</svg>
