<svg width="23" height="15" viewBox="0 0 23 15" fill="none" xmlns="http://www.w3.org/2000/svg">
<path d="M21.25 6.25C20.9115 6.25 20.612 6.38021 20.3516 6.64062C20.1172 6.875 20 7.16146 20 7.5C20 7.83854 20.1172 8.13802 20.3516 8.39844C20.612 8.63281 20.9115 8.75 21.25 8.75H22.5V13.125C22.5 13.6458 22.3177 14.0885 21.9531 14.4531C21.5885 14.8177 21.1458 15 20.625 15H1.875C1.35417 15 0.911458 14.8177 0.546875 14.4531C0.182292 14.0885 0 13.6458 0 13.125V8.75H1.25C1.58854 8.75 1.875 8.63281 2.10938 8.39844C2.36979 8.13802 2.5 7.83854 2.5 7.5C2.5 7.16146 2.36979 6.875 2.10938 6.64062C1.875 6.38021 1.58854 6.25 1.25 6.25H0V1.875C0 1.35417 0.182292 0.911458 0.546875 0.546875C0.911458 0.182292 1.35417 0 1.875 0H20.625C21.1458 0 21.5885 0.182292 21.9531 0.546875C22.3177 0.911458 22.5 1.35417 22.5 1.875V6.25H21.25ZM21.25 10C20.5729 10 19.987 9.7526 19.4922 9.25781C18.9974 8.76302 18.75 8.17708 18.75 7.5C18.75 6.82292 18.9974 6.23698 19.4922 5.74219C19.987 5.2474 20.5729 5 21.25 5V1.875C21.25 1.69271 21.1849 1.54948 21.0547 1.44531C20.9505 1.3151 20.8073 1.25 20.625 1.25H1.875C1.69271 1.25 1.53646 1.3151 1.40625 1.44531C1.30208 1.54948 1.25 1.69271 1.25 1.875V5C1.92708 5 2.51302 5.2474 3.00781 5.74219C3.5026 6.23698 3.75 6.82292 3.75 7.5C3.75 8.17708 3.5026 8.76302 3.00781 9.25781C2.51302 9.7526 1.92708 10 1.25 10V13.125C1.25 13.3073 1.30208 13.4635 1.40625 13.5938C1.53646 13.6979 1.69271 13.75 1.875 13.75H20.625C20.8073 13.75 20.9505 13.6979 21.0547 13.5938C21.1849 13.4635 21.25 13.3073 21.25 13.125V10Z" fill="#4B4D67"/>
</svg>
